<mxfile host="app.diagrams.net" agent="Mozilla/5.0 (Windows NT 10.0; Win64; x64) AppleWebKit/537.36 (KHTML, like Gecko) Chrome/134.0.0.0 Safari/537.36 Edg/134.0.0.0" version="26.0.2">
  <diagram name="第 1 页" id="kauQDRFqsyh2UUT5HMzD">
    <mxGraphModel dx="929" dy="896" grid="0" gridSize="10" guides="1" tooltips="1" connect="1" arrows="1" fold="1" page="0" pageScale="1" pageWidth="827" pageHeight="1169" math="0" shadow="0">
      <root>
        <mxCell id="0" />
        <mxCell id="1" parent="0" />
        <mxCell id="DK-CATXi4uO4ZT2zTe4n-14" value="" style="shape=table;startSize=0;container=1;collapsible=0;childLayout=tableLayout;fontSize=16;" vertex="1" parent="1">
          <mxGeometry x="-76" y="149" width="320" height="98.65008544921875" as="geometry" />
        </mxCell>
        <mxCell id="DK-CATXi4uO4ZT2zTe4n-15" value="" style="shape=tableRow;horizontal=0;startSize=0;swimlaneHead=0;swimlaneBody=0;strokeColor=inherit;top=0;left=0;bottom=0;right=0;collapsible=0;dropTarget=0;fillColor=none;points=[[0,0.5],[1,0.5]];portConstraint=eastwest;fontSize=16;" vertex="1" parent="DK-CATXi4uO4ZT2zTe4n-14">
          <mxGeometry width="320" height="99" as="geometry" />
        </mxCell>
        <mxCell id="DK-CATXi4uO4ZT2zTe4n-16" value="1" style="shape=partialRectangle;html=1;whiteSpace=wrap;connectable=0;strokeColor=#b85450;overflow=hidden;fillColor=#f8cecc;top=0;left=0;bottom=0;right=0;pointerEvents=1;fontSize=16;" vertex="1" parent="DK-CATXi4uO4ZT2zTe4n-15">
          <mxGeometry width="20" height="99" as="geometry">
            <mxRectangle width="20" height="99" as="alternateBounds" />
          </mxGeometry>
        </mxCell>
        <mxCell id="DK-CATXi4uO4ZT2zTe4n-17" value="2" style="shape=partialRectangle;html=1;whiteSpace=wrap;connectable=0;strokeColor=#b85450;overflow=hidden;fillColor=#f8cecc;top=0;left=0;bottom=0;right=0;pointerEvents=1;fontSize=16;" vertex="1" parent="DK-CATXi4uO4ZT2zTe4n-15">
          <mxGeometry x="20" width="20" height="99" as="geometry">
            <mxRectangle width="20" height="99" as="alternateBounds" />
          </mxGeometry>
        </mxCell>
        <mxCell id="DK-CATXi4uO4ZT2zTe4n-18" value="3" style="shape=partialRectangle;html=1;whiteSpace=wrap;connectable=0;strokeColor=#d6b656;overflow=hidden;fillColor=#fff2cc;top=0;left=0;bottom=0;right=0;pointerEvents=1;fontSize=16;" vertex="1" parent="DK-CATXi4uO4ZT2zTe4n-15">
          <mxGeometry x="40" width="20" height="99" as="geometry">
            <mxRectangle width="20" height="99" as="alternateBounds" />
          </mxGeometry>
        </mxCell>
        <mxCell id="DK-CATXi4uO4ZT2zTe4n-27" value="4" style="shape=partialRectangle;html=1;whiteSpace=wrap;connectable=0;strokeColor=#d6b656;overflow=hidden;fillColor=#fff2cc;top=0;left=0;bottom=0;right=0;pointerEvents=1;fontSize=16;" vertex="1" parent="DK-CATXi4uO4ZT2zTe4n-15">
          <mxGeometry x="60" width="20" height="99" as="geometry">
            <mxRectangle width="20" height="99" as="alternateBounds" />
          </mxGeometry>
        </mxCell>
        <mxCell id="DK-CATXi4uO4ZT2zTe4n-28" value="5" style="shape=partialRectangle;html=1;whiteSpace=wrap;connectable=0;strokeColor=#d79b00;overflow=hidden;fillColor=#ffe6cc;top=0;left=0;bottom=0;right=0;pointerEvents=1;fontSize=16;" vertex="1" parent="DK-CATXi4uO4ZT2zTe4n-15">
          <mxGeometry x="80" width="20" height="99" as="geometry">
            <mxRectangle width="20" height="99" as="alternateBounds" />
          </mxGeometry>
        </mxCell>
        <mxCell id="DK-CATXi4uO4ZT2zTe4n-29" value="6" style="shape=partialRectangle;html=1;whiteSpace=wrap;connectable=0;strokeColor=#d79b00;overflow=hidden;fillColor=#ffe6cc;top=0;left=0;bottom=0;right=0;pointerEvents=1;fontSize=16;" vertex="1" parent="DK-CATXi4uO4ZT2zTe4n-15">
          <mxGeometry x="100" width="20" height="99" as="geometry">
            <mxRectangle width="20" height="99" as="alternateBounds" />
          </mxGeometry>
        </mxCell>
        <mxCell id="DK-CATXi4uO4ZT2zTe4n-30" value="7" style="shape=partialRectangle;html=1;whiteSpace=wrap;connectable=0;strokeColor=#82b366;overflow=hidden;fillColor=#d5e8d4;top=0;left=0;bottom=0;right=0;pointerEvents=1;fontSize=16;" vertex="1" parent="DK-CATXi4uO4ZT2zTe4n-15">
          <mxGeometry x="120" width="20" height="99" as="geometry">
            <mxRectangle width="20" height="99" as="alternateBounds" />
          </mxGeometry>
        </mxCell>
        <mxCell id="DK-CATXi4uO4ZT2zTe4n-31" value="8" style="shape=partialRectangle;html=1;whiteSpace=wrap;connectable=0;strokeColor=#82b366;overflow=hidden;fillColor=#d5e8d4;top=0;left=0;bottom=0;right=0;pointerEvents=1;fontSize=16;" vertex="1" parent="DK-CATXi4uO4ZT2zTe4n-15">
          <mxGeometry x="140" width="20" height="99" as="geometry">
            <mxRectangle width="20" height="99" as="alternateBounds" />
          </mxGeometry>
        </mxCell>
        <mxCell id="DK-CATXi4uO4ZT2zTe4n-32" value="9" style="shape=partialRectangle;html=1;whiteSpace=wrap;connectable=0;strokeColor=#b85450;overflow=hidden;fillColor=#f8cecc;top=0;left=0;bottom=0;right=0;pointerEvents=1;fontSize=16;" vertex="1" parent="DK-CATXi4uO4ZT2zTe4n-15">
          <mxGeometry x="160" width="20" height="99" as="geometry">
            <mxRectangle width="20" height="99" as="alternateBounds" />
          </mxGeometry>
        </mxCell>
        <mxCell id="DK-CATXi4uO4ZT2zTe4n-33" value="10" style="shape=partialRectangle;html=1;whiteSpace=wrap;connectable=0;strokeColor=#b85450;overflow=hidden;fillColor=#f8cecc;top=0;left=0;bottom=0;right=0;pointerEvents=1;fontSize=16;" vertex="1" parent="DK-CATXi4uO4ZT2zTe4n-15">
          <mxGeometry x="180" width="20" height="99" as="geometry">
            <mxRectangle width="20" height="99" as="alternateBounds" />
          </mxGeometry>
        </mxCell>
        <mxCell id="DK-CATXi4uO4ZT2zTe4n-34" value="11" style="shape=partialRectangle;html=1;whiteSpace=wrap;connectable=0;strokeColor=#d6b656;overflow=hidden;fillColor=#fff2cc;top=0;left=0;bottom=0;right=0;pointerEvents=1;fontSize=16;" vertex="1" parent="DK-CATXi4uO4ZT2zTe4n-15">
          <mxGeometry x="200" width="20" height="99" as="geometry">
            <mxRectangle width="20" height="99" as="alternateBounds" />
          </mxGeometry>
        </mxCell>
        <mxCell id="DK-CATXi4uO4ZT2zTe4n-35" value="12" style="shape=partialRectangle;html=1;whiteSpace=wrap;connectable=0;strokeColor=#d6b656;overflow=hidden;fillColor=#fff2cc;top=0;left=0;bottom=0;right=0;pointerEvents=1;fontSize=16;" vertex="1" parent="DK-CATXi4uO4ZT2zTe4n-15">
          <mxGeometry x="220" width="20" height="99" as="geometry">
            <mxRectangle width="20" height="99" as="alternateBounds" />
          </mxGeometry>
        </mxCell>
        <mxCell id="DK-CATXi4uO4ZT2zTe4n-36" value="13" style="shape=partialRectangle;html=1;whiteSpace=wrap;connectable=0;strokeColor=#d79b00;overflow=hidden;fillColor=#ffe6cc;top=0;left=0;bottom=0;right=0;pointerEvents=1;fontSize=16;" vertex="1" parent="DK-CATXi4uO4ZT2zTe4n-15">
          <mxGeometry x="240" width="20" height="99" as="geometry">
            <mxRectangle width="20" height="99" as="alternateBounds" />
          </mxGeometry>
        </mxCell>
        <mxCell id="DK-CATXi4uO4ZT2zTe4n-37" value="14" style="shape=partialRectangle;html=1;whiteSpace=wrap;connectable=0;strokeColor=#d79b00;overflow=hidden;fillColor=#ffe6cc;top=0;left=0;bottom=0;right=0;pointerEvents=1;fontSize=16;" vertex="1" parent="DK-CATXi4uO4ZT2zTe4n-15">
          <mxGeometry x="260" width="20" height="99" as="geometry">
            <mxRectangle width="20" height="99" as="alternateBounds" />
          </mxGeometry>
        </mxCell>
        <mxCell id="DK-CATXi4uO4ZT2zTe4n-38" value="15" style="shape=partialRectangle;html=1;whiteSpace=wrap;connectable=0;strokeColor=#82b366;overflow=hidden;fillColor=#d5e8d4;top=0;left=0;bottom=0;right=0;pointerEvents=1;fontSize=16;" vertex="1" parent="DK-CATXi4uO4ZT2zTe4n-15">
          <mxGeometry x="280" width="20" height="99" as="geometry">
            <mxRectangle width="20" height="99" as="alternateBounds" />
          </mxGeometry>
        </mxCell>
        <mxCell id="DK-CATXi4uO4ZT2zTe4n-39" value="16" style="shape=partialRectangle;html=1;whiteSpace=wrap;connectable=0;strokeColor=#82b366;overflow=hidden;fillColor=#d5e8d4;top=0;left=0;bottom=0;right=0;pointerEvents=1;fontSize=16;" vertex="1" parent="DK-CATXi4uO4ZT2zTe4n-15">
          <mxGeometry x="300" width="20" height="99" as="geometry">
            <mxRectangle width="20" height="99" as="alternateBounds" />
          </mxGeometry>
        </mxCell>
        <mxCell id="DK-CATXi4uO4ZT2zTe4n-41" value="" style="endArrow=none;html=1;rounded=0;fontSize=12;startSize=8;endSize=8;curved=1;strokeWidth=5;strokeColor=#FF0000;" edge="1" parent="1">
          <mxGeometry width="50" height="50" relative="1" as="geometry">
            <mxPoint x="83" y="261" as="sourcePoint" />
            <mxPoint x="83" y="138" as="targetPoint" />
          </mxGeometry>
        </mxCell>
      </root>
    </mxGraphModel>
  </diagram>
</mxfile>
